<svg width="67" height="65" viewBox="0 0 67 65" fill="none" xmlns="http://www.w3.org/2000/svg">
<path d="M62.98 33.177C62.98 31.0645 62.7846 29.0333 62.4217 27.0833H33.5V38.6208H50.0267C49.3008 42.3312 47.1233 45.4728 43.8571 47.5853V55.0874H53.8233C59.63 49.8874 62.98 42.2499 62.98 33.177Z" fill="white"/>
<path d="M33.5001 62.2917C41.7914 62.2917 48.7426 59.6375 53.8234 55.0875L43.8572 47.5854C41.1214 49.3729 37.6318 50.4562 33.5001 50.4562C25.5159 50.4562 18.7322 45.2292 16.3034 38.1875H6.08594V45.8792C11.1389 55.6021 21.4959 62.2917 33.5001 62.2917Z" fill="white"/>
<path d="M16.3034 38.1604C15.6892 36.3729 15.3263 34.4771 15.3263 32.5C15.3263 30.5229 15.6892 28.6271 16.3034 26.8396V19.1479H6.08591C3.99216 23.1563 2.79175 27.6792 2.79175 32.5C2.79175 37.3209 3.99216 41.8438 6.08591 45.8521L14.0422 39.8396L16.3034 38.1604Z" fill="white"/>
<path d="M33.5001 14.5708C38.0226 14.5708 42.0426 16.0874 45.253 19.0124L54.0468 10.4812C48.7147 5.66034 41.7914 2.70825 33.5001 2.70825C21.4959 2.70825 11.1389 9.39784 6.08594 19.1478L16.3034 26.8395C18.7322 19.7978 25.5159 14.5708 33.5001 14.5708Z" fill="white"/>
</svg>
